HIERARCHY
ROOT hip
{
  OFFSET 0 0 0
  CHANNELS 6 Xposition Yposition Zposition Zrotation Yrotation Xrotation
  JOINT abdomen
  {
    OFFSET 0 20.6881 -0.73152
    CHANNELS 3 Zrotation Xrotation Yrotation
    JOINT chest
    {
      OFFSET 0 11.7043 -0.48768
      CHANNELS 3 Zrotation Xrotation Yrotation
      JOINT neck
      {
        OFFSET 0 22.1894 -2.19456
        CHANNELS 3 Zrotation Xrotation Yrotation
        JOINT head
        {
          OFFSET -0.24384 7.07133 1.2192
          CHANNELS 3 Zrotation Xrotation Yrotation
          JOINT leftEye
          {
            OFFSET 4.14528 8.04674 8.04672
            CHANNELS 3 Zrotation Xrotation Yrotation
            End Site
            {
              OFFSET 1 0 0
            }
          }
          JOINT rightEye
          {
            OFFSET -3.6576 8.04674 8.04672
            CHANNELS 3 Zrotation Xrotation Yrotation
            End Site
            {
              OFFSET 1 0 0
            }
          }
        }
      }
      JOINT rCollar
      {
        OFFSET -2.68224 19.2634 -4.8768
        CHANNELS 3 Zrotation Xrotation Yrotation
        JOINT rShldr
        {
          OFFSET -8.77824 -1.95073 1.46304
          CHANNELS 3 Zrotation Xrotation Yrotation
          JOINT rForeArm
          {
            OFFSET -28.1742 -1.7115 0.48768
            CHANNELS 3 Zrotation Xrotation Yrotation
            JOINT rHand
            {
              OFFSET -22.5879 0.773209 7.07136
              CHANNELS 3 Zrotation Xrotation Yrotation
              JOINT rThumb1
              {
                OFFSET -1.2192 -0.487915 3.41376
                CHANNELS 3 Zrotation Xrotation Yrotation
                JOINT rThumb2
                {
                  OFFSET -3.37035 -0.52449 3.41376
                  CHANNELS 3 Zrotation Xrotation Yrotation
                  End Site
                  {
                    OFFSET -1.78271 -1.18214 1.43049
                  }
                }
              }
              JOINT rIndex1
              {
                OFFSET -7.75947 0.938293 5.60832
                CHANNELS 3 Zrotation Xrotation Yrotation
                JOINT rIndex2
                {
                  OFFSET -2.54057 -0.884171 1.56538
                  CHANNELS 3 Zrotation Xrotation Yrotation
                  End Site
                  {
                    OFFSET -1.62519 -0.234802 1.16502
                  }
                }
              }
              JOINT rMid1
              {
                OFFSET -8.24714 1.18213 3.41376
                CHANNELS 3 Zrotation Xrotation Yrotation
                JOINT rMid2
                {
                  OFFSET -3.10165 -0.590103 1.0647
                  CHANNELS 3 Zrotation Xrotation Yrotation
                  End Site
                  {
                    OFFSET -2.48547 -0.328903 0.83742
                  }
                }
              }
              JOINT rRing1
              {
                OFFSET -8.82822 0.546677 1.51678
                CHANNELS 3 Zrotation Xrotation Yrotation
                JOINT rRing2
                {
                  OFFSET -2.60934 -0.819778 -0.0198488
                  CHANNELS 3 Zrotation Xrotation Yrotation
                  End Site
                  {
                    OFFSET -2.33842 -0.294052 0.168128
                  }
                }
              }
              JOINT rPinky1
              {
                OFFSET -8.27202 -0.0477905 -0.4584
                CHANNELS 3 Zrotation Xrotation Yrotation
                JOINT rPinky2
                {
                  OFFSET -1.82734 -0.647385 -0.700984
                  CHANNELS 3 Zrotation Xrotation Yrotation
                  End Site
                  {
                    OFFSET -1.69225 -0.51767 -0.607171
                  }
                }
              }
            }
          }
        }
      }
      JOINT lCollar
      {
        OFFSET 2.68224 19.2634 -4.8768
        CHANNELS 3 Zrotation Xrotation Yrotation
        JOINT lShldr
        {
          OFFSET 8.77824 -1.95073 1.46304
          CHANNELS 3 Zrotation Xrotation Yrotation
          JOINT lForeArm
          {
            OFFSET 28.1742 -1.7115 0.48768
            CHANNELS 3 Zrotation Xrotation Yrotation
            JOINT lHand
            {
              OFFSET 22.5879 0.773209 7.07136
              CHANNELS 3 Zrotation Xrotation Yrotation
              JOINT lThumb1
              {
                OFFSET 1.2192 -0.487915 3.41376
                CHANNELS 3 Zrotation Xrotation Yrotation
                JOINT lThumb2
                {
                  OFFSET 3.37035 -0.52449 3.41376
                  CHANNELS 3 Zrotation Xrotation Yrotation
                  End Site
                  {
                    OFFSET 1.78271 -1.18214 1.43049
                  }
                }
              }
              JOINT lIndex1
              {
                OFFSET 7.75947 0.938293 5.60832
                CHANNELS 3 Zrotation Xrotation Yrotation
                JOINT lIndex2
                {
                  OFFSET 2.54057 -0.884171 1.56538
                  CHANNELS 3 Zrotation Xrotation Yrotation
                  End Site
                  {
                    OFFSET 1.62519 -0.234802 1.16502
                  }
                }
              }
              JOINT lMid1
              {
                OFFSET 8.24714 1.18213 3.41376
                CHANNELS 3 Zrotation Xrotation Yrotation
                JOINT lMid2
                {
                  OFFSET 3.10165 -0.590103 1.0647
                  CHANNELS 3 Zrotation Xrotation Yrotation
                  End Site
                  {
                    OFFSET 2.48547 -0.328903 0.83742
                  }
                }
              }
              JOINT lRing1
              {
                OFFSET 8.82822 0.546677 1.51678
                CHANNELS 3 Zrotation Xrotation Yrotation
                JOINT lRing2
                {
                  OFFSET 2.60934 -0.819778 -0.0198488
                  CHANNELS 3 Zrotation Xrotation Yrotation
                  End Site
                  {
                    OFFSET 2.33842 -0.294052 0.168128
                  }
                }
              }
              JOINT lPinky1
              {
                OFFSET 8.27202 -0.0477905 -0.4584
                CHANNELS 3 Zrotation Xrotation Yrotation
                JOINT lPinky2
                {
                  OFFSET 1.82734 -0.647385 -0.700984
                  CHANNELS 3 Zrotation Xrotation Yrotation
                  End Site
                  {
                    OFFSET 1.69225 -0.51767 -0.607171
                  }
                }
              }
            }
          }
        }
      }
    }
  }
  JOINT rButtock
  {
    OFFSET -8.77824 4.35084 1.2192
    CHANNELS 3 Zrotation Xrotation Yrotation
    JOINT rThigh
    {
      OFFSET 0 -1.70687 -2.19456
      CHANNELS 3 Zrotation Xrotation Yrotation
      JOINT rShin
      {
        OFFSET 0 -36.8199 0.73152
        CHANNELS 3 Zrotation Xrotation Yrotation
        JOINT rFoot
        {
          OFFSET 0.73152 -45.1104 -5.12064
          CHANNELS 3 Zrotation Xrotation Yrotation
          End Site
          {
            OFFSET -1.1221 -3.69964 12.103
          }
        }
      }
    }
  }
  JOINT lButtock
  {
    OFFSET 8.77824 4.35084 1.2192
    CHANNELS 3 Zrotation Xrotation Yrotation
    JOINT lThigh
    {
      OFFSET 0 -1.70687 -2.19456
      CHANNELS 3 Zrotation Xrotation Yrotation
      JOINT lShin
      {
        OFFSET 0 -36.8199 0.73152
        CHANNELS 3 Zrotation Xrotation Yrotation
        JOINT lFoot
        {
          OFFSET -0.73152 -45.1104 -5.12064
          CHANNELS 3 Zrotation Xrotation Yrotation
          End Site
          {
            OFFSET 1.1221 -3.69964 12.103
          }
        }
      }
    }
  }
}
MOTION
Frames:	4
Frame Time:	0.00833333
174.38 84.8561 23.7152 0.0 0.0 0.0 0.435983 -0.0238511 0.0128205 0.121279 -0.0396246 0.02105 -1.21699e-15 7.95139e-16 -1.98785e-16 -3.60297e-15 9.54166e-15 -5.69953e-16 -0.0 0.0 0.0 -0.0 0.0 0.0 -5.4786e-16 2.44598e-17 0.0 -1.03915e-14 1.32937e-15 -9.93923e-16 -2.03357e-13 9.74045e-14 -3.81667e-14 -2.39397e-12 1.00983e-13 -4.13472e-13 -5.63843e-12 4.21684e-13 -9.47805e-13 -9.7492e-12 7.21986e-13 -1.65548e-12 -5.63157e-12 4.21424e-13 -9.57347e-13 7.73091 5.47488 0.417314 -5.63878e-12 4.21424e-13 -9.54166e-13 2.90554 0.965183 0.102902 -5.62986e-12 4.2192e-13 -9.57347e-13 10.2786 0.731801 0.0259123 -5.64171e-12 4.24206e-13 -9.57347e-13 2.22167 -0.733487 -0.20892 -6.44888e-16 2.48481e-17 -1.98785e-16 -1.38706e-14 1.14922e-15 -2.98177e-15 -2.11755e-13 -3.12092e-14 -4.45278e-14 -2.38542e-12 2.22738e-13 -4.0393e-13 -5.63216e-12 4.0762e-13 -9.63708e-13 -9.71182e-12 6.99722e-13 -1.65548e-12 -5.63555e-12 4.08304e-13 -9.57347e-13 -7.73091 5.47488 -0.417314 -5.63122e-12 4.0731e-13 -9.66889e-13 -2.90554 0.965183 -0.102902 -5.63554e-12 4.07707e-13 -9.58937e-13 -10.2786 0.731801 -0.0259123 -5.62461e-12 4.10292e-13 -9.60528e-13 -2.22167 -0.733487 0.20892 -2.03217e-16 0.0 -3.88251e-19 0.651715 -4.71112 -0.0694662 -0.00084221 2.99812 0.00383558 -0.3261 1.72322 0.0697516 2.03217e-16 0.0 3.88251e-19 0.0328755 -2.68023 0.0231661 0.00579689 -0.679792 0.0505589 0.296432 3.37022 -0.0967189
165.768 78.2077 14.5339 17.4229 -87.4657 5.1295 5.59445 1.9949 1.62589 -0.123384 -4.75271 0.508409 -0.740732 -0.775758 -0.0346469 -4.1348 1.43733 0.0795532 -0.0 0.0 0.0 -0.0 0.0 0.0 -1.36326e-14 -2.47661e-13 2.7143e-14 15.7013 12.9678 -0.741771 -8.44125 -5.30667 11.3307 0.00904814 -2.1335 -0.299125 2.4045e-10 -3.9019e-11 -3.54696e-10 4.19184e-10 -6.73567e-11 -6.11202e-10 2.40455e-10 -3.90204e-11 -3.54707e-10 7.73091 5.47488 0.417314 2.4045e-10 -3.90196e-11 -3.54701e-10 2.90554 0.965183 0.102902 2.40457e-10 -3.9018e-11 -3.54704e-10 10.2786 0.731801 0.0259123 2.40447e-10 -3.90175e-11 -3.54702e-10 2.22167 -0.733487 -0.20892 -1.36981e-14 -2.4765e-13 2.69648e-14 -20.8632 14.5669 5.6793 17.7684 -15.3062 -15.0562 -0.00565517 1.95037 -0.273682 -4.74035e-10 2.62114e-11 7.00154e-10 -8.16833e-10 4.55028e-11 1.21186e-09 -4.74038e-10 2.62125e-11 7.00161e-10 -7.73091 5.47488 -0.417314 -4.74035e-10 2.62115e-11 7.00152e-10 -2.90554 0.965183 -0.102902 -4.74038e-10 2.62115e-11 7.00159e-10 -10.2786 0.731801 -0.0259123 -4.74029e-10 2.62137e-11 7.00156e-10 -2.22167 -0.733487 0.20892 -2.03217e-16 0.0 -3.88251e-19 6.07285 -15.5606 2.61288 -0.125259 14.7406 -0.0187065 -0.0645108 -5.58625 -0.358697 2.03217e-16 0.0 3.88251e-19 1.21632 -14.6226 1.30003 -0.451336 23.3367 -0.238276 0.224211 5.63825 4.81693
162.254 76.989 12.7769 -58.8315 -85.2317 81.4832 10.9875 4.1286 3.29622 -0.353049 -9.70005 1.01616 -1.51937 -1.59781 -0.0504196 -8.53712 2.97746 0.204472 -0.0 0.0 0.0 -0.0 0.0 0.0 -2.75784e-14 -5.28769e-13 5.88558e-14 32.7749 26.7951 -1.72774 -14.8749 -9.92703 23.4413 -0.00572244 -4.35239 -0.611643 5.34484e-10 -8.57664e-11 -7.82017e-10 9.31668e-10 -1.48058e-10 -1.34749e-09 5.34487e-10 -8.57689e-11 -7.82029e-10 7.73091 5.47488 0.417314 5.34485e-10 -8.57674e-11 -7.82021e-10 2.90554 0.965183 0.102902 5.3449e-10 -8.57644e-11 -7.82023e-10 10.2786 0.731801 0.0259123 5.34481e-10 -8.57659e-11 -7.8202e-10 2.22167 -0.733487 -0.20892 -2.76111e-14 -5.28744e-13 5.87036e-14 -46.3546 29.5822 12.6894 27.2516 -27.7694 -34.2298 0.0103289 4.12854 -0.580528 -1.00249e-09 7.94135e-11 1.51029e-09 -1.72759e-09 1.37727e-10 2.61401e-09 -1.00249e-09 7.94152e-11 1.5103e-09 -7.73091 5.47488 -0.417314 -1.00249e-09 7.94143e-11 1.51029e-09 -2.90554 0.965183 -0.102902 -1.00249e-09 7.94138e-11 1.5103e-09 -10.2786 0.731801 -0.0259123 -1.00249e-09 7.94156e-11 1.51029e-09 -2.22167 -0.733487 0.20892 -2.03217e-16 0.0 -3.88251e-19 13.0634 -27.2035 5.94907 -0.259999 27.2858 -0.0667028 0.0993654 -13.356 -0.835278 2.03217e-16 0.0 3.88251e-19 3.13612 -27.0109 2.9636 -0.539039 48.7511 -0.763514 -0.31009 8.29356 10.1947
159.14 77.0529 11.8089 -71.759 -84.8325 95.1453 15.5692 6.01314 4.87598 -0.365705 -14.1746 1.5243 -2.22501 -2.32727 -0.104017 -12.4164 4.31196 0.239262 -0.0 0.0 0.0 -0.0 0.0 0.0 -3.98021e-14 -7.43032e-13 8.14291e-14 48.3538 38.8733 -2.78586 -19.2973 -13.4265 34.9312 -0.0400397 -6.39979 -0.902376 7.32627e-10 -1.17901e-10 -1.06219e-09 1.27705e-09 -2.03514e-10 -1.8303e-09 7.32628e-10 -1.17904e-10 -1.06221e-09 7.73091 5.47488 0.417314 7.32628e-10 -1.17902e-10 -1.06219e-09 2.90554 0.965183 0.102902 7.32632e-10 -1.17898e-10 -1.0622e-09 10.2786 0.731801 0.0259123 7.32623e-10 -1.17901e-10 -1.06219e-09 2.22167 -0.733487 -0.20892 -3.98046e-14 -7.42999e-13 8.12921e-14 -73.5712 41.6802 22.3347 28.5892 -32.2951 -54.5657 0.0391791 5.85058 -0.824866 -1.41084e-09 7.78189e-11 2.10239e-09 -2.43108e-09 1.35109e-10 3.63889e-09 -1.41084e-09 7.78209e-11 2.1024e-09 -7.73091 5.47488 -0.417314 -1.41084e-09 7.782e-11 2.10239e-09 -2.90554 0.965183 -0.102902 -1.41084e-09 7.78192e-11 2.10239e-09 -10.2786 0.731801 -0.0259123 -1.41084e-09 7.78206e-11 2.10239e-09 -2.22167 -0.733487 0.20892 -2.03217e-16 0.0 -3.88251e-19 20.621 -36.9142 9.63407 -0.339992 38.2255 -0.0788375 0.113787 -20.2008 -1.28977 2.03217e-16 0.0 3.88251e-19 5.56278 -38.4217 4.75982 0.598115 71.3555 -2.36993 -1.08686 9.9012 14.7992
